<svg width="96" height="96" viewBox="0 0 96 96" fill="none" xmlns="http://www.w3.org/2000/svg">
<rect width="96" height="96" fill="#FF5A27"/>
<path d="M69.8853 30.7486L51.4461 80H44.2853L22.5342 24.8491C21.3706 21.8994 20.207 19.486 16 16.5363V16H47.1496V16.6257C43.3902 19.0391 41.8686 20.5586 41.8686 23.0614C41.8686 24.6704 42.4951 26.6369 43.4797 29.4078L55.2056 61.5866L66.7525 30.3911L66.7954 30.2786C67.4934 28.4495 68.0951 26.8728 68.0951 25.2961C68.0951 22.7039 66.4839 20.1117 60.7552 16.6257V16H80V16.6257C73.5552 22.1676 72.2126 24.581 69.8853 30.7486Z" fill="#1E1E1E"/>
<path d="M72.8 80C76.7765 80 80 76.7765 80 72.8C80 68.8235 76.7765 65.6 72.8 65.6C68.8235 65.6 65.6 68.8235 65.6 72.8C65.6 76.7765 68.8235 80 72.8 80Z" fill="#1E1E1E"/>
</svg>
